<svg width="11" height="14" viewBox="0 0 11 14" fill="none" xmlns="http://www.w3.org/2000/svg">
<path d="M7.0687 0.275879H3.14614C2.74165 0.275879 2.41372 0.603809 2.41372 1.0083V6.5519H1.57715C1.17266 6.5519 0.844727 6.87983 0.844727 7.28433C0.844727 7.68882 1.17266 8.01675 1.57715 8.01675H2.41372V9.68994H1.57715C1.17266 9.68994 0.844727 10.0179 0.844727 10.4224C0.844727 10.8269 1.17266 11.1548 1.57715 11.1548H2.41372V12.7759C2.41372 13.1804 2.74165 13.5083 3.14614 13.5083C3.55063 13.5083 3.87856 13.1804 3.87856 12.7759V11.1548H7.0687C7.47319 11.1548 7.80112 10.8269 7.80112 10.4224C7.80112 10.0179 7.47319 9.68994 7.0687 9.68994H3.87856V8.01675H7.0687C9.20288 8.01675 10.9392 6.28047 10.9392 4.14629C10.9391 1.95937 9.15771 0.275879 7.0687 0.275879ZM7.0687 6.5519H3.87856V1.74072H7.0687C8.38716 1.74072 9.47432 2.8042 9.47432 4.14634C9.47427 5.4728 8.39517 6.5519 7.0687 6.5519Z" fill="#F21F5B"/>
</svg>
